<svg width="32" height="32" viewBox="0 0 32 32" fill="none" xmlns="http://www.w3.org/2000/svg">
<path d="M16.0054 9.8467C12.5994 9.8467 9.85206 12.594 9.85206 16C9.85206 19.406 12.5994 22.1533 16.0054 22.1533C19.4114 22.1533 22.1587 19.406 22.1587 16C22.1587 12.594 19.4114 9.8467 16.0054 9.8467ZM16.0054 20.0004C13.8043 20.0004 12.0049 18.2064 12.0049 16C12.0049 13.7936 13.799 11.9996 16.0054 11.9996C18.2118 11.9996 20.0058 13.7936 20.0058 16C20.0058 18.2064 18.2064 20.0004 16.0054 20.0004ZM23.8456 9.595C23.8456 10.3929 23.2029 11.0302 22.4104 11.0302C21.6124 11.0302 20.9751 10.3876 20.9751 9.595C20.9751 8.80241 21.6178 8.15977 22.4104 8.15977C23.2029 8.15977 23.8456 8.80241 23.8456 9.595ZM27.921 11.0517C27.83 9.12909 27.3908 7.42608 25.9824 6.02298C24.5793 4.61988 22.8763 4.18074 20.9537 4.08435C18.9722 3.97188 13.0331 3.97188 11.0517 4.08435C9.13444 4.17539 7.43144 4.61453 6.02298 6.01763C4.61453 7.42073 4.18074 9.12373 4.08435 11.0463C3.97188 13.0278 3.97188 18.9669 4.08435 20.9483C4.17539 22.8709 4.61453 24.5739 6.02298 25.977C7.43144 27.3801 9.12909 27.8193 11.0517 27.9157C13.0331 28.0281 18.9722 28.0281 20.9537 27.9157C22.8763 27.8246 24.5793 27.3855 25.9824 25.977C27.3855 24.5739 27.8246 22.8709 27.921 20.9483C28.0335 18.9669 28.0335 13.0331 27.921 11.0517ZM25.3612 23.0744C24.9434 24.1241 24.1348 24.9327 23.0798 25.3558C21.4999 25.9824 17.7512 25.8378 16.0054 25.8378C14.2595 25.8378 10.5054 25.977 8.93094 25.3558C7.88129 24.9381 7.07263 24.1294 6.64956 23.0744C6.02298 21.4946 6.16758 17.7458 6.16758 16C6.16758 14.2542 6.02834 10.5001 6.64956 8.92558C7.06728 7.87593 7.87593 7.06728 8.93094 6.6442C10.5108 6.01763 14.2595 6.16222 16.0054 6.16222C17.7512 6.16222 21.5053 6.02298 23.0798 6.6442C24.1294 7.06192 24.9381 7.87058 25.3612 8.92558C25.9877 10.5054 25.8431 14.2542 25.8431 16C25.8431 17.7458 25.9877 21.4999 25.3612 23.0744Z" fill="#FAFAFF"/>
</svg>
